<?xml version="1.0" encoding="UTF-8" standalone="no"?><!DOCTYPE svg PUBLIC "-//W3C//DTD SVG 1.1//EN" "http://www.w3.org/Graphics/SVG/1.1/DTD/svg11.dtd"><svg width="100%" height="100%" viewBox="0 0 1561 404" version="1.1" xmlns="http://www.w3.org/2000/svg" xmlns:xlink="http://www.w3.org/1999/xlink" xml:space="preserve" xmlns:serif="http://www.serif.com/" style="fill-rule:evenodd;clip-rule:evenodd;stroke-linejoin:round;stroke-miterlimit:2;"><g><g><path d="M41.183,267.692c0,11.168 -6.864,16.752 -20.591,16.752c-13.728,0 -20.592,-5.584 -20.592,-16.752l0,-241.516c0,-5.352 1.512,-10.18 4.537,-14.484c3.025,-4.305 8.842,-6.457 17.451,-6.457l118.664,0c8.376,0 12.797,5.817 13.262,17.451c0.465,11.866 -3.955,17.799 -13.262,17.799l-99.469,0l0,227.207Z" style="fill:#00c3be;fill-rule:nonzero;"/><path d="M130.53,138.209c0,3.955 -0.756,7.736 -2.268,11.342c-1.513,3.607 -3.607,6.69 -6.282,9.249c-2.676,2.56 -5.759,4.596 -9.249,6.108c-3.49,1.512 -7.33,2.269 -11.518,2.269c-7.911,-0 -14.658,-2.793 -20.242,-8.377c-5.584,-5.584 -8.377,-12.448 -8.377,-20.591c0,-8.144 2.793,-15.008 8.377,-20.592c5.584,-5.584 12.331,-8.376 20.242,-8.376c4.188,-0 8.028,0.756 11.518,2.268c3.49,1.513 6.573,3.607 9.249,6.282c2.675,2.676 4.769,5.759 6.282,9.249c1.512,3.49 2.268,7.213 2.268,11.169Z" style="fill:#f48d11;fill-rule:nonzero;"/><path d="M228.603,268.739c-0,10.936 -6.399,16.403 -19.196,16.403c-13.03,0 -19.545,-5.467 -19.545,-16.403l0,-250.241c0,-10.936 6.515,-16.404 19.545,-16.404c12.797,0 19.196,5.468 19.196,16.404l-0,250.241Z" style="fill:#00c3be;fill-rule:nonzero;"/><path d="M315.157,226.509c0,5.584 1.804,10.819 5.41,15.705c3.607,4.886 9.714,7.329 18.323,7.329l43.627,0c8.609,0 14.716,-2.152 18.323,-6.456c3.606,-4.305 5.409,-9.249 5.409,-14.833l0,-3.84c0,-10.935 6.399,-16.403 19.196,-16.403c12.797,-0 19.196,5.468 19.196,16.403l-0,4.189c-0,9.772 -1.571,17.799 -4.712,24.081c-3.141,6.283 -7.853,11.75 -14.135,16.404c-12.332,8.842 -24.663,13.262 -36.995,13.262l-58.634,0c-12.332,0 -24.315,-4.42 -35.948,-13.262c-5.584,-4.654 -9.889,-10.529 -12.914,-17.625c-3.024,-7.097 -4.537,-15.298 -4.537,-24.605l0,-99.469c0,-18.846 5.817,-32.807 17.451,-41.881c5.817,-4.188 11.808,-7.504 17.974,-9.947c6.166,-2.443 12.157,-3.665 17.974,-3.665l58.634,0c5.584,0 11.75,1.106 18.498,3.316c6.747,2.21 13.029,5.177 18.846,8.9c5.584,3.955 10.063,9.423 13.437,16.403c3.374,6.981 5.061,15.241 5.061,24.78l-0,47.117c-0,5.351 -1.571,10.121 -4.712,14.309c-3.141,4.188 -8.9,6.282 -17.276,6.282l-75.386,0c-8.377,0 -12.798,-5.467 -13.263,-16.403c0,-10.936 4.421,-16.404 13.263,-16.404l59.332,0l-0.35,-32.458c0,-5.817 -1.803,-11.11 -5.409,-15.88c-3.607,-4.77 -9.714,-7.155 -18.323,-7.155l-43.627,0c-8.609,0 -14.716,2.385 -18.323,7.155c-3.606,4.77 -5.41,10.063 -5.41,15.88l0,98.771Z" style="fill:#00c3be;fill-rule:nonzero;"/><path d="M575.869,175.553l58.634,82.716c1.629,2.326 2.443,4.886 2.443,7.678c0,4.886 -3.49,9.772 -10.47,14.658c-4.421,3.025 -8.609,4.537 -12.565,4.537c-2.326,0 -4.711,-0.814 -7.154,-2.443c-2.443,-1.628 -4.712,-3.722 -6.806,-6.282l-47.815,-67.359c-3.49,4.886 -7.271,10.238 -11.343,16.054c-4.071,5.817 -8.201,11.692 -12.389,17.626c-4.189,5.933 -8.319,11.808 -12.39,17.625c-4.072,5.817 -7.853,11.168 -11.343,16.054c-4.421,5.817 -9.191,8.725 -14.31,8.725c-4.421,0 -8.609,-1.512 -12.564,-4.537c-3.258,-2.326 -5.759,-4.595 -7.504,-6.805c-1.745,-2.211 -2.617,-4.712 -2.617,-7.504c-0,-2.792 0.93,-5.468 2.792,-8.027l57.936,-82.716c-8.609,-12.332 -17.684,-25.245 -27.223,-38.74c-9.54,-13.496 -18.614,-26.525 -27.223,-39.09c-0.931,-1.628 -1.803,-3.432 -2.618,-5.409c-0.814,-1.978 -1.221,-3.549 -1.221,-4.712c-0,-4.886 3.257,-9.423 9.772,-13.612l-0.349,0c2.327,-1.163 4.479,-2.152 6.457,-2.966c1.977,-0.815 3.897,-1.222 5.758,-1.222c6.283,0 11.75,3.374 16.404,10.122l43.975,62.473l43.976,-62.473c4.886,-6.748 10.354,-10.122 16.403,-10.122c2.094,0 4.072,0.407 5.934,1.222c1.861,0.814 3.955,1.803 6.282,2.966l-0.349,0c6.747,4.189 10.121,8.726 10.121,13.612c0,2.792 -1.396,6.166 -4.188,10.121l-54.446,77.83Z" style="fill:#00c3be;fill-rule:nonzero;"/><path d="M703.956,267.692c0,11.168 -6.398,16.752 -19.195,16.752c-13.03,0 -19.545,-5.584 -19.545,-16.752l0,-180.09c0,-11.168 6.515,-16.753 19.545,-16.753c12.797,0 19.195,5.585 19.195,16.753l0,180.09Z" style="fill:#00c3be;fill-rule:nonzero;"/><path d="M711.286,26.874c-0,7.445 -2.56,13.728 -7.679,18.847c-5.118,5.118 -11.401,7.678 -18.846,7.678c-7.446,-0 -13.786,-2.56 -19.021,-7.678c-5.236,-5.119 -7.853,-11.402 -7.853,-18.847c-0,-7.678 2.617,-14.077 7.853,-19.196c5.235,-5.119 11.575,-7.678 19.021,-7.678c7.445,-0 13.728,2.559 18.846,7.678c5.119,5.119 7.679,11.518 7.679,19.196Z" style="fill:#f48d11;fill-rule:nonzero;"/><path d="M969.554,3.49c7.446,0 15.589,1.745 24.431,5.235c8.144,3.258 12.215,9.424 12.215,18.498l0,240.469c0,11.168 -6.863,16.752 -20.591,16.752c-13.728,0 -20.592,-5.584 -20.592,-16.752l0,-179.392l-10.121,-1.047l-13.961,45.371l-41.881,139.605c-2.56,8.144 -8.842,12.099 -18.847,11.866c-4.421,-0.232 -8.26,-1.396 -11.517,-3.49c-3.258,-2.094 -5.468,-5.119 -6.631,-9.074l-25.129,-81.32c-5.119,-16.054 -10.238,-32.4 -15.357,-49.036c-5.119,-16.636 -10.703,-35.075 -16.752,-55.318l-10.122,1.396l0,180.439c0,11.168 -6.864,16.752 -20.591,16.752c-13.728,0 -20.592,-5.584 -20.592,-16.752l0,-240.469c0,-8.842 4.072,-15.008 12.215,-18.498c8.609,-3.49 16.869,-5.119 24.78,-4.886c3.49,0 7.097,0.465 10.82,1.396c3.722,0.931 7.213,2.269 10.47,4.014c3.257,1.745 6.166,3.955 8.725,6.631c2.56,2.676 4.537,5.759 5.933,9.249l54.795,186.721c3.956,-13.728 8.144,-28.619 12.565,-44.673c4.42,-16.055 8.958,-32.342 13.611,-48.862c4.654,-16.52 9.249,-32.865 13.786,-49.036c4.537,-16.171 8.784,-31.237 12.739,-45.197c1.396,-3.258 3.374,-6.166 5.933,-8.725c2.56,-2.56 5.468,-4.712 8.725,-6.457c3.258,-1.745 6.69,-3.083 10.296,-4.014c3.607,-0.931 7.155,-1.396 10.645,-1.396Z" style="fill:#f48d11;fill-rule:nonzero;"/><path d="M1104.97,282.35c-7.213,0 -14.077,-0.988 -20.592,-2.966c-6.515,-1.978 -12.797,-4.828 -18.847,-8.551l0,0.349c-11.401,-7.213 -17.101,-20.475 -17.101,-39.787l-0,-17.102c-0,-9.54 1.687,-17.858 5.06,-24.954c3.374,-7.097 8.086,-12.739 14.135,-16.927l-0.349,-0c5.817,-3.956 11.983,-6.922 18.498,-8.9c6.515,-1.978 12.797,-2.967 18.847,-2.967l77.131,0l0,-32.458c0,-5.817 -1.803,-11.11 -5.409,-15.88c-3.607,-4.77 -9.715,-7.155 -18.324,-7.155l-40.834,0c-8.842,0 -14.949,2.153 -18.323,6.457c-3.374,4.305 -5.061,9.365 -5.061,15.182l0,2.792c0,12.099 -6.515,18.149 -19.544,18.149c-13.03,-0 -19.545,-6.05 -19.545,-18.149l0,-3.141c0,-9.539 1.687,-17.567 5.061,-24.082c3.373,-6.514 7.969,-11.982 13.786,-16.403l-0.349,-0c6.049,-3.956 12.39,-7.213 19.021,-9.772c6.631,-2.56 12.971,-3.84 19.021,-3.84l53.05,0c5.817,0 12.041,1.28 18.672,3.84c6.631,2.559 12.855,5.816 18.672,9.772l-0.349,-0c6.049,4.421 10.703,10.179 13.96,17.276c3.258,7.096 4.887,15.298 4.887,24.605l-0,139.954c-0,11.168 -6.399,16.752 -19.196,16.752c-2.56,0 -4.944,-0.116 -7.155,-0.349c-2.21,-0.232 -4.188,-0.872 -5.933,-1.919c-1.745,-1.047 -3.141,-2.56 -4.188,-4.537c-1.047,-1.978 -1.571,-4.596 -1.571,-7.853l-0.349,-76.434l-70.5,0c-5.119,0 -9.074,0.582 -11.866,1.745c-2.793,1.164 -5.003,3.025 -6.632,5.585c-1.861,3.955 -3.199,7.038 -4.013,9.248c-0.815,2.211 -1.222,4.712 -1.222,7.504l0,13.612c0,6.049 1.803,10.645 5.41,13.786c3.606,3.141 9.83,4.711 18.672,4.711l39.089,0c8.609,0 12.914,5.468 12.914,16.404c-0,4.653 -1.047,8.551 -3.141,11.692c-2.095,3.141 -5.352,4.711 -9.773,4.711l-45.72,0Z" style="fill:#f48d11;fill-rule:nonzero;"/><path d="M1302.86,267.692c0,11.168 -6.398,16.752 -19.195,16.752c-13.263,0 -19.894,-5.584 -19.894,-16.752l-0,-144.491c-0,-19.079 5.7,-32.342 17.102,-39.787c11.401,-7.446 24.547,-11.169 39.438,-11.169l39.787,0c8.609,0 12.914,5.468 12.914,16.404c0.465,10.936 -3.84,16.403 -12.914,16.403l-36.995,0c-8.376,0 -13.844,1.629 -16.404,4.887c-2.559,3.257 -3.839,7.794 -3.839,13.611l0,144.142Z" style="fill:#f48d11;fill-rule:nonzero;"/><path d="M1441.07,224.065l-0,44.325c-0,10.936 -6.399,16.403 -19.196,16.403c-12.797,0 -19.195,-5.467 -19.195,-16.403l-0,-248.496c-0,-11.169 6.398,-16.753 19.195,-16.753c12.797,0 19.196,5.584 19.196,16.753l-0,147.981c5.817,-6.981 12.273,-14.484 19.37,-22.512c7.097,-8.027 14.193,-16.171 21.29,-24.43c7.096,-8.26 14.135,-16.404 21.115,-24.431c6.98,-8.028 13.495,-15.531 19.545,-22.512l-0,0.349c4.188,-4.886 8.376,-7.329 12.564,-7.329c2.327,0 4.595,0.524 6.806,1.571c2.21,1.047 4.595,2.501 7.154,4.362l-0.349,0c5.585,4.654 8.377,9.307 8.377,13.961c-0,1.629 -0.349,3.432 -1.047,5.41c-0.698,1.977 -1.862,3.664 -3.49,5.06l-111.335,126.691Zm116.57,34.902c1.628,3.024 2.443,6.165 2.443,9.423c-0,6.049 -3.49,10.587 -10.471,13.611c-4.653,2.792 -8.841,4.189 -12.564,4.189c-2.559,-0 -5.002,-0.873 -7.329,-2.618c-2.327,-1.745 -4.188,-3.897 -5.584,-6.457l-34.902,-67.359c-2.094,-3.49 -3.141,-6.98 -3.141,-10.47c0,-5.817 3.025,-10.703 9.075,-14.659c1.628,-1.163 3.315,-2.21 5.06,-3.141c1.745,-0.931 3.665,-1.629 5.759,-2.094c2.559,-0.465 5.003,-0 7.329,1.396c2.327,1.396 4.305,3.257 5.933,5.584l38.392,72.595Z" style="fill:#f48d11;fill-rule:nonzero;"/></g><path d="M165.757,388.185l0,-42.331l-16.88,0l-0,-4.703l39.109,-0l0,4.703l-16.881,0l0,42.331l-5.348,0Z" style="fill:#00c3be;fill-rule:nonzero;"/><path d="M195.138,388.83c-3.393,-0 -6.078,-0.913 -8.054,-2.739c-1.976,-1.825 -2.964,-4.284 -2.964,-7.377c0,-3.866 1.568,-6.841 4.704,-8.924c3.135,-2.083 7.624,-3.125 13.466,-3.125l5.347,0c0,-3.049 -0.698,-5.197 -2.094,-6.443c-1.396,-1.245 -3.747,-1.868 -7.055,-1.868c-2.276,-0 -4.392,0.268 -6.346,0.805c-1.955,0.537 -3.92,1.385 -5.896,2.545l-0.837,-4.317c2.019,-1.159 4.145,-2.008 6.379,-2.545c2.233,-0.537 4.66,-0.805 7.28,-0.805c3.265,-0 5.896,0.44 7.893,1.321c1.997,0.88 3.458,2.276 4.381,4.188c0.924,1.911 1.386,4.435 1.386,7.57l-0,21.069l-4.897,0l-0,-4.574l-0.194,-0c-1.116,1.546 -2.845,2.802 -5.186,3.769c-2.341,0.966 -4.779,1.45 -7.313,1.45Zm1.611,-4.188c2.019,-0 3.855,-0.387 5.509,-1.16c1.653,-0.773 2.963,-1.815 3.93,-3.125c0.966,-1.31 1.449,-2.76 1.449,-4.349l0,-5.412l-4.703,-0c-4.553,-0 -7.989,0.655 -10.309,1.965c-2.319,1.31 -3.479,3.211 -3.479,5.702c-0,1.976 0.666,3.533 1.997,4.671c1.332,1.138 3.2,1.708 5.606,1.708Z" style="fill:#00c3be;fill-rule:nonzero;"/><path d="M222.521,388.185l0,-47.034l5.154,-0l0,27.898l0.129,0l17.268,-14.368l6.701,0l-19.459,16.108l20.296,17.396l-6.701,0l-18.169,-15.721l-0,15.721l-5.219,0Z" style="fill:#00c3be;fill-rule:nonzero;"/><path d="M270.393,388.83c-5.369,-0 -9.514,-1.504 -12.435,-4.511c-2.921,-3.006 -4.381,-7.302 -4.381,-12.886c-0,-5.412 1.406,-9.664 4.22,-12.757c2.813,-3.093 6.711,-4.639 11.694,-4.639c4.768,-0 8.419,1.45 10.953,4.349c2.535,2.899 3.802,7.055 3.802,12.467l-0,1.353c-0,0.473 -0.022,0.881 -0.065,1.225l-27.834,-0l0,-4.124l24.097,-0l-0.966,1.353c-0,-4.167 -0.838,-7.281 -2.513,-9.342c-1.675,-2.062 -4.166,-3.093 -7.474,-3.093c-3.522,-0 -6.228,1.106 -8.118,3.318c-1.89,2.212 -2.835,5.359 -2.835,9.439l-0,1.289c-0,4.037 1.009,7.087 3.028,9.149c2.019,2.062 4.983,3.093 8.892,3.093c2.061,-0 4.059,-0.269 5.992,-0.806c1.933,-0.537 3.672,-1.321 5.219,-2.351l1.095,4.059c-1.632,1.074 -3.512,1.911 -5.638,2.512c-2.126,0.602 -4.37,0.903 -6.733,0.903Z" style="fill:#00c3be;fill-rule:nonzero;"/><path d="M308.794,388.185l5.863,-47.034l6.508,-0l12.499,35.566l0.129,-0l12.5,-35.566l6.507,-0l5.863,47.034l-5.283,0l-4.317,-39.238l-0.129,-0l-12.37,34.084l-5.67,-0l-12.371,-34.084l-0.129,-0l-4.317,39.238l-5.283,0Z" style="fill:#00c3be;fill-rule:nonzero;"/><path d="M376.124,388.83c-3.393,-0 -6.078,-0.913 -8.054,-2.739c-1.976,-1.825 -2.964,-4.284 -2.964,-7.377c0,-3.866 1.568,-6.841 4.704,-8.924c3.136,-2.083 7.624,-3.125 13.466,-3.125l5.348,0c-0,-3.049 -0.698,-5.197 -2.094,-6.443c-1.396,-1.245 -3.748,-1.868 -7.056,-1.868c-2.276,-0 -4.392,0.268 -6.346,0.805c-1.954,0.537 -3.919,1.385 -5.895,2.545l-0.838,-4.317c2.019,-1.159 4.145,-2.008 6.379,-2.545c2.233,-0.537 4.66,-0.805 7.28,-0.805c3.265,-0 5.896,0.44 7.893,1.321c1.997,0.88 3.458,2.276 4.381,4.188c0.924,1.911 1.386,4.435 1.386,7.57l-0,21.069l-4.897,0l-0,-4.574l-0.193,-0c-1.117,1.546 -2.846,2.802 -5.187,3.769c-2.341,0.966 -4.779,1.45 -7.313,1.45Zm1.611,-4.188c2.019,-0 3.855,-0.387 5.509,-1.16c1.653,-0.773 2.964,-1.815 3.93,-3.125c0.966,-1.31 1.45,-2.76 1.45,-4.349l-0,-5.412l-4.704,-0c-4.553,-0 -7.989,0.655 -10.309,1.965c-2.319,1.31 -3.479,3.211 -3.479,5.702c0,1.976 0.666,3.533 1.997,4.671c1.332,1.138 3.2,1.708 5.606,1.708Z" style="fill:#00c3be;fill-rule:nonzero;"/><path d="M403.507,388.185l0,-33.504l4.897,0l-0,7.023l0.13,0c0.992,-1.589 2.264,-2.953 3.816,-4.091c1.553,-1.139 3.322,-2.019 5.306,-2.642c1.984,-0.623 4.076,-0.934 6.276,-0.934l-0,4.51c-2.835,0 -5.412,0.58 -7.732,1.74c-2.319,1.159 -4.156,2.706 -5.509,4.639c-1.353,1.933 -2.029,4.102 -2.029,6.507l-0,16.752l-5.155,0Z" style="fill:#00c3be;fill-rule:nonzero;"/><path d="M430.568,388.185l0,-47.034l5.155,-0l-0,27.898l0.128,0l17.268,-14.368l6.701,0l-19.458,16.108l20.295,17.396l-6.7,0l-18.17,-15.721l0,15.721l-5.219,0Z" style="fill:#00c3be;fill-rule:nonzero;"/><path d="M475.863,388.83c-4.51,-0 -8.022,-1.536 -10.534,-4.607c-2.513,-3.071 -3.77,-7.335 -3.77,-12.79c0,-5.455 1.26,-9.718 3.779,-12.789c2.519,-3.072 6.04,-4.607 10.561,-4.607c2.412,-0 4.651,0.451 6.717,1.353c2.067,0.902 3.661,2.169 4.78,3.801l0,-18.04l5.09,-0l0,47.034l-4.832,0l-0,-4.51l-0.129,0c-1.16,1.589 -2.792,2.846 -4.897,3.769c-2.105,0.924 -4.36,1.386 -6.765,1.386Zm1.031,-4.317c2.062,-0 3.876,-0.419 5.444,-1.257c1.568,-0.837 2.814,-1.986 3.737,-3.447c0.924,-1.46 1.386,-3.135 1.386,-5.025l-0,-6.701c-0,-1.89 -0.462,-3.565 -1.386,-5.026c-0.923,-1.46 -2.169,-2.609 -3.737,-3.447c-1.568,-0.837 -3.382,-1.256 -5.444,-1.256c-3.222,-0 -5.745,1.127 -7.571,3.382c-1.825,2.255 -2.738,5.488 -2.738,9.697c-0,4.21 0.913,7.442 2.738,9.697c1.826,2.255 4.349,3.383 7.571,3.383Z" style="fill:#00c3be;fill-rule:nonzero;"/><path d="M517.034,388.83c-3.307,-0 -6.196,-0.709 -8.666,-2.127c-2.47,-1.417 -4.359,-3.436 -5.67,-6.056c-1.31,-2.62 -1.965,-5.692 -1.965,-9.214c0,-3.565 0.655,-6.647 1.965,-9.246c1.311,-2.598 3.2,-4.606 5.67,-6.024c2.47,-1.417 5.359,-2.126 8.666,-2.126c3.351,-0 6.239,0.709 8.666,2.126c2.427,1.418 4.306,3.426 5.638,6.024c1.332,2.599 1.997,5.681 1.997,9.246c0,3.522 -0.665,6.594 -1.997,9.214c-1.332,2.62 -3.211,4.639 -5.638,6.056c-2.427,1.418 -5.315,2.127 -8.666,2.127Zm0,-4.317c3.523,-0 6.282,-1.16 8.28,-3.48c1.997,-2.319 2.996,-5.519 2.996,-9.6c-0,-4.123 -0.999,-7.334 -2.996,-9.632c-1.998,-2.298 -4.757,-3.447 -8.28,-3.447c-3.522,-0 -6.282,1.149 -8.279,3.447c-1.997,2.298 -2.996,5.509 -2.996,9.632c-0,4.081 0.999,7.281 2.996,9.6c1.997,2.32 4.757,3.48 8.279,3.48Z" style="fill:#00c3be;fill-rule:nonzero;"/><path d="M546.672,388.185l-9.471,-33.504l5.541,0l7.088,28.543l0.128,0l7.023,-28.543l6.894,0l7.023,28.543l0.129,0l7.088,-28.543l5.476,0l-9.407,33.504l-6.7,0l-7.023,-28.092l-0.129,0l-7.023,28.092l-6.637,0Z" style="fill:#00c3be;fill-rule:nonzero;"/><path d="M590.679,388.185l-0,-33.504l4.961,0l-0,4.961l0.129,0c1.331,-1.847 3.017,-3.243 5.058,-4.188c2.04,-0.945 4.349,-1.417 6.926,-1.417c4.081,-0 7.087,1.213 9.02,3.64c1.933,2.427 2.9,6.153 2.9,11.179l-0,19.329l-5.09,0l-0,-18.427c-0,-3.866 -0.666,-6.733 -1.998,-8.602c-1.331,-1.868 -3.372,-2.802 -6.121,-2.802c-2.062,-0 -3.898,0.461 -5.509,1.385c-1.61,0.924 -2.877,2.191 -3.801,3.801c-0.923,1.611 -1.385,3.469 -1.385,5.574l-0,19.071l-5.09,0Z" style="fill:#00c3be;fill-rule:nonzero;"/><path d="M648.538,388.185l-0,-47.034l5.863,-0l25.45,38.851l-0,-38.851l5.219,-0l-0,47.034l-5.799,0l-25.515,-38.852l0,38.852l-5.218,0Z" style="fill:#00c3be;fill-rule:nonzero;"/><path d="M710.133,388.83c-3.307,-0 -6.196,-0.709 -8.665,-2.127c-2.47,-1.417 -4.36,-3.436 -5.67,-6.056c-1.31,-2.62 -1.966,-5.692 -1.966,-9.214c0,-3.565 0.656,-6.647 1.966,-9.246c1.31,-2.598 3.2,-4.606 5.67,-6.024c2.469,-1.417 5.358,-2.126 8.665,-2.126c3.351,-0 6.24,0.709 8.666,2.126c2.427,1.418 4.307,3.426 5.638,6.024c1.332,2.599 1.997,5.681 1.997,9.246c0,3.522 -0.665,6.594 -1.997,9.214c-1.331,2.62 -3.211,4.639 -5.638,6.056c-2.426,1.418 -5.315,2.127 -8.666,2.127Zm0,-4.317c3.523,-0 6.282,-1.16 8.28,-3.48c1.997,-2.319 2.996,-5.519 2.996,-9.6c-0,-4.123 -0.999,-7.334 -2.996,-9.632c-1.998,-2.298 -4.757,-3.447 -8.28,-3.447c-3.522,-0 -6.282,1.149 -8.279,3.447c-1.997,2.298 -2.996,5.509 -2.996,9.632c0,4.081 0.999,7.281 2.996,9.6c1.997,2.32 4.757,3.48 8.279,3.48Z" style="fill:#00c3be;fill-rule:nonzero;"/><path d="M748.277,388.83c-3.866,-0 -6.669,-0.838 -8.409,-2.513c-1.739,-1.675 -2.609,-4.425 -2.609,-8.247l-0,-19.072l-8.118,0l-0,-4.317l8.118,0l-0,-10.953l5.154,-0l0,10.953l12.435,0l0,4.317l-12.435,0l0,18.427c0,2.492 0.516,4.263 1.547,5.316c1.031,1.052 2.77,1.578 5.219,1.578c0.945,0 1.804,-0.075 2.577,-0.225c0.773,-0.15 1.589,-0.376 2.448,-0.677l0.709,4.253c-1.117,0.386 -2.202,0.676 -3.254,0.87c-1.052,0.193 -2.18,0.29 -3.382,0.29Z" style="fill:#00c3be;fill-rule:nonzero;"/><path d="M776.562,388.83c-5.37,-0 -9.515,-1.504 -12.436,-4.511c-2.92,-3.006 -4.381,-7.302 -4.381,-12.886c0,-5.412 1.407,-9.664 4.22,-12.757c2.814,-3.093 6.712,-4.639 11.695,-4.639c4.767,-0 8.419,1.45 10.953,4.349c2.534,2.899 3.801,7.055 3.801,12.467l0,1.353c0,0.473 -0.021,0.881 -0.064,1.225l-27.834,-0l-0,-4.124l24.097,-0l-0.967,1.353c0,-4.167 -0.837,-7.281 -2.512,-9.342c-1.676,-2.062 -4.167,-3.093 -7.474,-3.093c-3.523,-0 -6.229,1.106 -8.119,3.318c-1.89,2.212 -2.835,5.359 -2.835,9.439l0,1.289c0,4.037 1.01,7.087 3.029,9.149c2.018,2.062 4.982,3.093 8.891,3.093c2.062,-0 4.059,-0.269 5.992,-0.806c1.933,-0.537 3.673,-1.321 5.219,-2.351l1.095,4.059c-1.632,1.074 -3.511,1.911 -5.637,2.512c-2.127,0.602 -4.371,0.903 -6.733,0.903Z" style="fill:#00c3be;fill-rule:nonzero;"/><path d="M808.326,388.83c-2.277,-0 -4.489,-0.237 -6.636,-0.709c-2.148,-0.473 -4.081,-1.139 -5.799,-1.998l0.966,-4.252c1.804,0.859 3.662,1.514 5.574,1.965c1.911,0.451 3.855,0.677 5.831,0.677c2.749,-0 4.832,-0.451 6.249,-1.353c1.418,-0.902 2.127,-2.234 2.127,-3.995c-0,-1.203 -0.323,-2.169 -0.967,-2.9c-0.644,-0.73 -1.589,-1.331 -2.835,-1.804c-1.245,-0.472 -2.835,-0.923 -4.768,-1.353c-2.577,-0.644 -4.778,-1.374 -6.604,-2.19c-1.825,-0.816 -3.221,-1.858 -4.188,-3.125c-0.966,-1.267 -1.45,-2.824 -1.45,-4.671c0,-2.921 1.128,-5.166 3.383,-6.733c2.255,-1.568 5.423,-2.352 9.504,-2.352c2.147,-0 4.274,0.215 6.378,0.644c2.105,0.43 3.973,1.053 5.606,1.869l-0.902,4.188c-1.59,-0.773 -3.329,-1.364 -5.219,-1.772c-1.89,-0.408 -3.78,-0.612 -5.67,-0.612c-2.62,-0 -4.596,0.408 -5.928,1.224c-1.331,0.816 -1.997,2.019 -1.997,3.608c-0,1.031 0.311,1.89 0.934,2.577c0.623,0.688 1.547,1.267 2.771,1.74c1.224,0.472 2.717,0.902 4.478,1.289c1.976,0.472 3.747,0.998 5.315,1.578c1.568,0.58 2.889,1.278 3.963,2.094c1.074,0.816 1.9,1.772 2.48,2.867c0.58,1.096 0.87,2.395 0.87,3.898c0,3.05 -1.181,5.413 -3.544,7.088c-2.362,1.675 -5.67,2.513 -9.922,2.513Z" style="fill:#00c3be;fill-rule:nonzero;"/><path d="M834.356,388.701c-1.117,-0 -2.029,-0.355 -2.738,-1.063c-0.709,-0.709 -1.063,-1.622 -1.063,-2.739c-0,-1.16 0.354,-2.094 1.063,-2.803c0.709,-0.708 1.621,-1.063 2.738,-1.063c1.16,0 2.094,0.355 2.803,1.063c0.709,0.709 1.063,1.643 1.063,2.803c-0,1.117 -0.354,2.03 -1.063,2.739c-0.709,0.708 -1.643,1.063 -2.803,1.063Z" style="fill:#00c3be;fill-rule:nonzero;"/><path d="M869.342,341.408c1.632,-0.234 3.211,-0.421 4.736,-0.561c1.525,-0.141 2.974,-0.212 4.349,-0.212l3.737,0c6.958,0 12.081,1.273 15.367,3.819c3.285,2.545 4.928,6.512 4.928,11.902c0,5.305 -1.596,9.252 -4.79,11.84c-3.193,2.588 -8.133,3.881 -14.82,3.881c-1.5,0 -3.064,-0.075 -4.693,-0.225c-1.629,-0.15 -3.686,-0.376 -6.172,-0.677l-0,-4.703c2.461,0.344 4.447,0.58 5.958,0.709c1.511,0.129 2.936,0.193 4.274,0.193c5.31,0 9.131,-0.87 11.463,-2.609c2.331,-1.74 3.497,-4.564 3.497,-8.473c0,-3.909 -1.16,-6.733 -3.479,-8.473c-2.32,-1.739 -6.121,-2.609 -11.404,-2.609c-1.504,-0 -3.147,0.064 -4.929,0.193c-1.783,0.129 -3.619,0.365 -5.509,0.709l2.641,-2.835l0,44.908l-5.154,0l0,-46.777Z" style="fill:#00c3be;fill-rule:nonzero;"/><path d="M908.58,388.185l0,-33.504l4.897,0l0,7.023l0.13,0c0.992,-1.589 2.264,-2.953 3.817,-4.091c1.553,-1.139 3.321,-2.019 5.305,-2.642c1.984,-0.623 4.076,-0.934 6.276,-0.934l-0,4.51c-2.835,0 -5.412,0.58 -7.732,1.74c-2.319,1.159 -4.156,2.706 -5.509,4.639c-1.353,1.933 -2.029,4.102 -2.029,6.507l-0,16.752l-5.155,0Z" style="fill:#00c3be;fill-rule:nonzero;"/><path d="M947.239,388.83c-5.369,-0 -9.514,-1.504 -12.435,-4.511c-2.921,-3.006 -4.382,-7.302 -4.382,-12.886c0,-5.412 1.407,-9.664 4.221,-12.757c2.813,-3.093 6.711,-4.639 11.694,-4.639c4.768,-0 8.419,1.45 10.953,4.349c2.534,2.899 3.802,7.055 3.802,12.467l-0,1.353c-0,0.473 -0.022,0.881 -0.065,1.225l-27.834,-0l-0,-4.124l24.097,-0l-0.966,1.353c-0,-4.167 -0.838,-7.281 -2.513,-9.342c-1.675,-2.062 -4.167,-3.093 -7.474,-3.093c-3.522,-0 -6.228,1.106 -8.118,3.318c-1.89,2.212 -2.835,5.359 -2.835,9.439l-0,1.289c-0,4.037 1.009,7.087 3.028,9.149c2.019,2.062 4.983,3.093 8.891,3.093c2.062,-0 4.059,-0.269 5.992,-0.806c1.933,-0.537 3.673,-1.321 5.219,-2.351l1.096,4.059c-1.633,1.074 -3.512,1.911 -5.638,2.512c-2.126,0.602 -4.371,0.903 -6.733,0.903Z" style="fill:#00c3be;fill-rule:nonzero;"/><path d="M976.555,388.185l-12.629,-33.504l5.542,0l10.631,29.767l0.128,0l10.632,-29.767l5.541,0l-12.629,33.504l-7.216,0Z" style="fill:#00c3be;fill-rule:nonzero;"/><path d="M1004.33,388.185l-0,-33.504l5.154,0l0,33.504l-5.154,0Zm2.577,-39.882c-1.117,-0 -2.03,-0.355 -2.738,-1.064c-0.709,-0.708 -1.064,-1.643 -1.064,-2.802c0,-1.117 0.355,-2.03 1.064,-2.739c0.708,-0.708 1.621,-1.063 2.738,-1.063c1.16,0 2.094,0.355 2.803,1.063c0.708,0.709 1.063,1.622 1.063,2.739c-0,1.159 -0.355,2.094 -1.063,2.802c-0.709,0.709 -1.643,1.064 -2.803,1.064Z" style="fill:#00c3be;fill-rule:nonzero;"/><path d="M1036.35,388.83c-5.37,-0 -9.515,-1.504 -12.435,-4.511c-2.921,-3.006 -4.382,-7.302 -4.382,-12.886c0,-5.412 1.407,-9.664 4.22,-12.757c2.814,-3.093 6.712,-4.639 11.695,-4.639c4.768,-0 8.419,1.45 10.953,4.349c2.534,2.899 3.801,7.055 3.801,12.467l0,1.353c0,0.473 -0.021,0.881 -0.064,1.225l-27.834,-0l-0,-4.124l24.097,-0l-0.967,1.353c0,-4.167 -0.837,-7.281 -2.512,-9.342c-1.676,-2.062 -4.167,-3.093 -7.474,-3.093c-3.523,-0 -6.229,1.106 -8.119,3.318c-1.89,2.212 -2.835,5.359 -2.835,9.439l0,1.289c0,4.037 1.01,7.087 3.029,9.149c2.019,2.062 4.982,3.093 8.891,3.093c2.062,-0 4.059,-0.269 5.992,-0.806c1.933,-0.537 3.673,-1.321 5.219,-2.351l1.095,4.059c-1.632,1.074 -3.511,1.911 -5.637,2.512c-2.126,0.602 -4.371,0.903 -6.733,0.903Z" style="fill:#00c3be;fill-rule:nonzero;"/><path d="M1063.41,388.185l-9.472,-33.504l5.541,0l7.088,28.543l0.129,0l7.023,-28.543l6.894,0l7.023,28.543l0.128,0l7.088,-28.543l5.477,0l-9.407,33.504l-6.701,0l-7.023,-28.092l-0.129,0l-7.023,28.092l-6.636,0Z" style="fill:#00c3be;fill-rule:nonzero;"/><path d="M1139.69,388.185l-0,-18.169l-18.556,-28.865l5.927,-0l15.27,24.161l0.129,0l15.206,-24.161l5.992,-0l-18.621,28.865l0,18.169l-5.347,0Z" style="fill:#00c3be;fill-rule:nonzero;"/><path d="M1174.81,388.83c-3.308,-0 -6.197,-0.709 -8.666,-2.127c-2.47,-1.417 -4.36,-3.436 -5.67,-6.056c-1.31,-2.62 -1.965,-5.692 -1.965,-9.214c-0,-3.565 0.655,-6.647 1.965,-9.246c1.31,-2.598 3.2,-4.606 5.67,-6.024c2.469,-1.417 5.358,-2.126 8.666,-2.126c3.35,-0 6.239,0.709 8.665,2.126c2.427,1.418 4.307,3.426 5.638,6.024c1.332,2.599 1.998,5.681 1.998,9.246c-0,3.522 -0.666,6.594 -1.998,9.214c-1.331,2.62 -3.211,4.639 -5.638,6.056c-2.426,1.418 -5.315,2.127 -8.665,2.127Zm-0,-4.317c3.522,-0 6.282,-1.16 8.279,-3.48c1.997,-2.319 2.996,-5.519 2.996,-9.6c-0,-4.123 -0.999,-7.334 -2.996,-9.632c-1.997,-2.298 -4.757,-3.447 -8.279,-3.447c-3.523,-0 -6.282,1.149 -8.28,3.447c-1.997,2.298 -2.996,5.509 -2.996,9.632c0,4.081 0.999,7.281 2.996,9.6c1.998,2.32 4.757,3.48 8.28,3.48Z" style="fill:#00c3be;fill-rule:nonzero;"/><path d="M1209.54,388.83c-3.909,-0 -6.819,-1.225 -8.731,-3.673c-1.911,-2.448 -2.867,-6.164 -2.867,-11.147l0,-19.329l5.09,0l0,18.427c0,3.866 0.645,6.733 1.933,8.602c1.289,1.868 3.243,2.803 5.863,2.803c2.019,-0 3.813,-0.473 5.38,-1.418c1.568,-0.945 2.792,-2.223 3.673,-3.833c0.88,-1.611 1.321,-3.448 1.321,-5.509l-0,-19.072l5.09,0l-0,33.504l-4.961,0l-0,-4.961c-1.289,1.804 -2.943,3.189 -4.962,4.156c-2.018,0.966 -4.295,1.45 -6.829,1.45Z" style="fill:#00c3be;fill-rule:nonzero;"/><path d="M1237.11,388.185l0,-33.504l4.897,0l-0,7.023l0.13,0c0.992,-1.589 2.264,-2.953 3.816,-4.091c1.553,-1.139 3.322,-2.019 5.306,-2.642c1.984,-0.623 4.076,-0.934 6.276,-0.934l-0,4.51c-2.835,0 -5.412,0.58 -7.732,1.74c-2.319,1.159 -4.156,2.706 -5.509,4.639c-1.353,1.933 -2.029,4.102 -2.029,6.507l-0,16.752l-5.155,0Z" style="fill:#00c3be;fill-rule:nonzero;"/><path d="M1290.65,388.185l-11.34,-47.034l5.284,-0l9.342,39.947l0.129,-0l9.665,-36.081l6.572,-0l9.664,36.081l0.129,-0l9.343,-39.947l5.283,-0l-11.34,47.034l-6.508,0l-9.793,-36.081l-0.129,-0l-9.793,36.081l-6.508,0Z" style="fill:#00c3be;fill-rule:nonzero;"/><path d="M1347.1,388.83c-3.394,-0 -6.078,-0.913 -8.054,-2.739c-1.976,-1.825 -2.964,-4.284 -2.964,-7.377c-0,-3.866 1.568,-6.841 4.703,-8.924c3.136,-2.083 7.625,-3.125 13.466,-3.125l5.348,0c0,-3.049 -0.698,-5.197 -2.094,-6.443c-1.396,-1.245 -3.748,-1.868 -7.055,-1.868c-2.277,-0 -4.392,0.268 -6.346,0.805c-1.955,0.537 -3.92,1.385 -5.896,2.545l-0.838,-4.317c2.019,-1.159 4.146,-2.008 6.379,-2.545c2.234,-0.537 4.661,-0.805 7.281,-0.805c3.264,-0 5.895,0.44 7.893,1.321c1.997,0.88 3.457,2.276 4.381,4.188c0.923,1.911 1.385,4.435 1.385,7.57l0,21.069l-4.897,0l0,-4.574l-0.193,-0c-1.117,1.546 -2.846,2.802 -5.187,3.769c-2.341,0.966 -4.778,1.45 -7.312,1.45Zm1.61,-4.188c2.019,-0 3.855,-0.387 5.509,-1.16c1.654,-0.773 2.964,-1.815 3.93,-3.125c0.967,-1.31 1.45,-2.76 1.45,-4.349l0,-5.412l-4.703,-0c-4.553,-0 -7.99,0.655 -10.309,1.965c-2.32,1.31 -3.48,3.211 -3.48,5.702c0,1.976 0.666,3.533 1.998,4.671c1.331,1.138 3.2,1.708 5.605,1.708Z" style="fill:#00c3be;fill-rule:nonzero;"/><path d="M1371.77,398.752c2.319,-0.473 4.263,-1.181 5.831,-2.126c1.567,-0.945 2.899,-2.266 3.994,-3.963c1.096,-1.697 2.051,-3.876 2.867,-6.54l0.258,3.802l-15.27,-35.244l5.477,0l11.404,28.028l0.129,-0l10.373,-28.028l5.477,0l-13.402,33.44c-1.246,3.092 -2.609,5.648 -4.091,7.667c-1.482,2.019 -3.179,3.597 -5.09,4.736c-1.912,1.138 -4.199,1.965 -6.862,2.48l-1.095,-4.252Z" style="fill:#00c3be;fill-rule:nonzero;"/><path d="M1407.86,388.701c-1.117,-0 -2.03,-0.355 -2.738,-1.063c-0.709,-0.709 -1.064,-1.622 -1.064,-2.739c0,-1.16 0.355,-2.094 1.064,-2.803c0.708,-0.708 1.621,-1.063 2.738,-1.063c1.16,0 2.094,0.355 2.803,1.063c0.708,0.709 1.063,1.643 1.063,2.803c-0,1.117 -0.355,2.03 -1.063,2.739c-0.709,0.708 -1.643,1.063 -2.803,1.063Z" style="fill:#00c3be;fill-rule:nonzero;"/></g></svg>