<?xml version="1.0" encoding="UTF-8" standalone="no"?>
<!DOCTYPE svg PUBLIC "-//W3C//DTD SVG 1.1//EN" "http://www.w3.org/Graphics/SVG/1.1/DTD/svg11.dtd">
<svg width="100%" height="100%" viewBox="0 0 852 852" version="1.1" xmlns="http://www.w3.org/2000/svg" xmlns:xlink="http://www.w3.org/1999/xlink" xml:space="preserve" xmlns:serif="http://www.serif.com/" style="fill-rule:evenodd;clip-rule:evenodd;stroke-linejoin:round;stroke-miterlimit:2;">
    <g transform="matrix(1,0,0,1,-534,-114)">
        <g transform="matrix(1.21379,0,0,1.21379,-365.327,-295.071)">
            <circle cx="1091.89" cy="687.988" r="350.204" style="fill:white;"/>
        </g>
        <g transform="matrix(1.38506,0,0,1.38506,15.8143,-207.935)">
            <g transform="matrix(1,0,0,1,14.4398,0)">
                <g transform="matrix(1,0,0,1,276.941,-0.872529)">
                    <path d="M221.142,664.597C221.142,675.766 214.279,681.35 200.551,681.35C186.823,681.35 179.959,675.766 179.959,664.597L179.959,423.081C179.959,417.73 181.471,412.902 184.496,408.597C187.521,404.293 193.338,402.14 201.947,402.14L320.611,402.14C328.987,402.14 333.408,407.957 333.873,419.591C334.339,431.457 329.918,437.391 320.611,437.391L221.142,437.391L221.142,664.597Z" style="fill:rgb(0,195,190);fill-rule:nonzero;"/>
                </g>
                <g transform="matrix(1,0,0,1,276.941,-0.872529)">
                    <path d="M310.489,535.114C310.489,539.069 309.733,542.85 308.221,546.457C306.708,550.063 304.614,553.146 301.939,555.706C299.263,558.265 296.18,560.301 292.69,561.813C289.2,563.326 285.361,564.082 281.172,564.082C273.262,564.082 266.514,561.29 260.93,555.706C255.346,550.121 252.554,543.257 252.554,535.114C252.554,526.97 255.346,520.106 260.93,514.522C266.514,508.938 273.262,506.146 281.172,506.146C285.361,506.146 289.2,506.902 292.69,508.414C296.18,509.927 299.263,512.021 301.939,514.697C304.614,517.372 306.708,520.455 308.221,523.945C309.733,527.436 310.489,531.158 310.489,535.114Z" style="fill:rgb(244,141,17);fill-rule:nonzero;"/>
                </g>
            </g>
            <g transform="matrix(0.923228,0,0,1,-330.746,118.383)">
                <path d="M1287.82,281.14C1295.27,281.14 1303.41,282.885 1312.26,286.375C1320.4,289.632 1324.47,295.798 1324.47,304.873L1324.47,545.342C1324.47,556.51 1317.61,562.094 1303.88,562.094C1290.15,562.094 1283.29,556.51 1283.29,545.342L1283.29,365.95L1273.17,364.903L1259.2,410.274L1217.32,549.879C1214.76,558.022 1208.48,561.978 1198.48,561.745C1194.06,561.512 1190.22,560.349 1186.96,558.255C1183.7,556.161 1181.49,553.136 1180.33,549.181L1155.2,467.861C1150.08,451.806 1144.96,435.461 1139.84,418.825C1134.72,402.189 1129.14,383.749 1123.09,363.506L1112.97,364.903L1112.97,545.342C1112.97,556.51 1106.11,562.094 1092.38,562.094C1078.65,562.094 1071.79,556.51 1071.79,545.342L1071.79,304.873C1071.79,296.031 1075.86,289.865 1084,286.375C1092.61,282.885 1100.87,281.256 1108.78,281.489C1112.27,281.489 1115.88,281.954 1119.6,282.885C1123.32,283.815 1126.81,285.153 1130.07,286.898C1133.33,288.643 1136.24,290.854 1138.8,293.53C1141.36,296.205 1143.33,299.288 1144.73,302.778L1199.52,489.5C1203.48,475.772 1207.67,460.881 1212.09,444.826C1216.51,428.772 1221.05,412.484 1225.7,395.965C1230.35,379.445 1234.95,363.099 1239.49,346.928C1244.02,330.758 1248.27,315.692 1252.23,301.731C1253.62,298.474 1255.6,295.566 1258.16,293.006C1260.72,290.447 1263.63,288.294 1266.88,286.549C1270.14,284.804 1273.57,283.466 1277.18,282.536C1280.79,281.605 1284.33,281.14 1287.82,281.14Z" style="fill:rgb(244,141,17);fill-rule:nonzero;"/>
            </g>
        </g>
        <g transform="matrix(1.29128,0,0,1.29128,960,844.683)">
            <g transform="matrix(1,0,0,1,-104,-64)">
                <g>
                    <path d="M15,10C12.239,10 10,12.239 10,15L10,113C10,115.761 12.239,118 15,118L193,118C195.761,118 198,115.761 198,113L198,15C198,12.239 195.761,10 193,10L15,10ZM0,15C0,6.716 6.716,0 15,0L193,0C201.284,0 208,6.716 208,15L208,113C208,121.284 201.284,128 193,128L15,128C6.716,128 0,121.284 0,113L0,15Z"/>
                    <path d="M30,98L30,30L50,30L70,55L90,30L110,30L110,98L90,98L90,59L70,84L50,59L50,98L30,98ZM155,98L125,65L145,65L145,30L165,30L165,65L185,65L155,98Z" style="fill-rule:nonzero;"/>
                </g>
            </g>
        </g>
    </g>
</svg>
